<?xml version="1.0" encoding="UTF-8" standalone="no"?>
<!-- Created with Inkscape (http://www.inkscape.org/) -->

<svg
   xmlns:dc="http://purl.org/dc/elements/1.1/"
   xmlns:cc="http://creativecommons.org/ns#"
   xmlns:rdf="http://www.w3.org/1999/02/22-rdf-syntax-ns#"
   xmlns:svg="http://www.w3.org/2000/svg"
   xmlns="http://www.w3.org/2000/svg"
   xmlns:sodipodi="http://sodipodi.sourceforge.net/DTD/sodipodi-0.dtd"
   xmlns:inkscape="http://www.inkscape.org/namespaces/inkscape"
   width="210mm"
   height="297mm"
   id="svg2"
   version="1.1"
   inkscape:version="0.48.5 r10040"
   sodipodi:docname="iconos.svg">
  <defs
     id="defs4" />
  <sodipodi:namedview
     id="base"
     pagecolor="#ffffff"
     bordercolor="#666666"
     borderopacity="1.0"
     inkscape:pageopacity="0.0"
     inkscape:pageshadow="2"
     inkscape:zoom="1.4142136"
     inkscape:cx="256.75"
     inkscape:cy="795.14719"
     inkscape:document-units="px"
     inkscape:current-layer="text2989"
     showgrid="false"
     inkscape:window-width="1440"
     inkscape:window-height="851"
     inkscape:window-x="0"
     inkscape:window-y="1"
     inkscape:window-maximized="1" />
  <metadata
     id="metadata7">
    <rdf:RDF>
      <cc:Work
         rdf:about="">
        <dc:format>image/svg+xml</dc:format>
        <dc:type
           rdf:resource="http://purl.org/dc/dcmitype/StillImage" />
        <dc:title></dc:title>
      </cc:Work>
    </rdf:RDF>
  </metadata>
  <g
     inkscape:label="Capa 1"
     inkscape:groupmode="layer"
     id="layer1">
    <g
       style="font-size:144px;font-style:normal;font-variant:normal;font-weight:bold;font-stretch:normal;line-height:125%;letter-spacing:0px;word-spacing:0px;fill:#000000;fill-opacity:1;stroke:none;font-family:Bauhaus 93;-inkscape-font-specification:Bauhaus 93"
       id="text2989"
       transform="translate(-11,-15)">
      <path
         d="m 268.24219,389.36218 -48.16407,0 c -1.125,0 -1.6875,-0.5625 -1.6875,-1.6875 l 0,-3.09375 c 0,-0.98437 0.77344,-2.06249 2.32032,-3.23437 1.35937,-1.07812 2.03905,-2.76562 2.03906,-5.0625 l 0,-83.25 c -1e-5,-2.4374 -0.86719,-4.26553 -2.60156,-5.48438 -1.17188,-0.79677 -1.75782,-1.73427 -1.75782,-2.8125 l 0,-3.375 c 0,-0.89051 0.5625,-1.33583 1.6875,-1.33593 l 36.14063,0 c 0.65621,10e-5 1.8984,-0.0702 3.72656,-0.21094 1.64058,-0.14052 2.67183,-0.21083 3.09375,-0.21094 1.54683,1.1e-4 2.32027,0.42198 2.32031,1.26563 l 0,20.67187 c -4e-5,1.07821 -0.11723,1.73446 -0.35156,1.96875 -0.18755,0.18759 -0.77348,0.28134 -1.75781,0.28125 l -2.60156,0 c -1.12505,9e-5 -1.75786,-0.65616 -1.89844,-1.96875 -0.51567,-3.65616 -1.45317,-6.77334 -2.8125,-9.35156 -1.31254,-2.6249 -3.98441,-3.9374 -8.01563,-3.9375 l -8.85937,0 0,39.79687 3.23437,0 c 2.0156,6e-5 3.39841,-0.37494 4.14844,-1.125 0.74997,-0.79681 1.68747,-3.23431 2.8125,-7.3125 0.37497,-1.31243 0.63278,-2.03899 0.77344,-2.17968 0.14059,-0.14056 0.56247,-0.21087 1.26562,-0.21094 l 3.09375,0 c 1.21872,7e-5 1.82809,0.58601 1.82813,1.75781 l 0,26.50781 c -4e-5,1.12505 -0.56254,1.68754 -1.6875,1.6875 l -3.23438,0 c -0.70315,4e-5 -1.19534,-0.16402 -1.47656,-0.49218 -0.28128,-0.37496 -0.65628,-1.47652 -1.125,-3.30469 -0.84378,-3.32808 -1.75784,-5.3437 -2.74219,-6.04688 -0.9844,-0.74994 -2.34377,-1.12494 -4.07812,-1.125 l -2.8125,0 0,44.50782 9.49219,0 c 3.51559,0 5.95308,-0.82031 7.3125,-2.46094 1.35933,-1.68749 3.04683,-6.2578 5.0625,-13.71094 0.4687,-1.68747 1.31245,-2.53122 2.53125,-2.53125 l 3.02343,0 c 1.17183,3e-5 1.75777,0.58596 1.75782,1.75781 l 0,25.3125"
         style="fill:#2a7fff;stroke:#000000;stroke-opacity:1;font-family:Gloucester MT Extra Condensed;-inkscape-font-specification:Gloucester MT Extra Condensed"
         id="path3017"
         inkscape:connector-curvature="0"
         inkscape:export-filename="/Users/marianovillaloncastro/Google Drive/WebsPracticas/Web-Jubatus/img/ejercicios.png"
         inkscape:export-xdpi="90"
         inkscape:export-ydpi="90" />
      <text
         xml:space="preserve"
         style="font-size:144px;font-style:normal;font-variant:normal;font-weight:bold;font-stretch:normal;line-height:125%;letter-spacing:0px;word-spacing:0px;fill:#ff0000;fill-opacity:1;stroke:#000000;stroke-width:1;stroke-opacity:1;font-family:Gloucester MT Extra Condensed;-inkscape-font-specification:Gloucester MT Extra Condensed"
         x="112.592"
         y="454.85861"
         id="text3789"
         sodipodi:linespacing="125%"
         transform="matrix(0.92474185,-0.38059495,0.38059495,0.92474185,0,0)"
         inkscape:export-filename="/Users/marianovillaloncastro/Google Drive/WebsPracticas/Web-Jubatus/img/ejercicios.png"
         inkscape:export-xdpi="90"
         inkscape:export-ydpi="90"><tspan
           sodipodi:role="line"
           id="tspan3791"
           x="112.592"
           y="454.85861"
           style="font-size:72px;fill:#ff0000;fill-opacity:1;stroke:#000000;stroke-width:1;stroke-opacity:1">j</tspan></text>
    </g>
    <text
       xml:space="preserve"
       style="font-size:144px;font-style:normal;font-variant:normal;font-weight:bold;font-stretch:normal;line-height:125%;letter-spacing:0px;word-spacing:0px;fill:#000000;fill-opacity:1;stroke:none;font-family:Bauhaus 93;-inkscape-font-specification:Bauhaus 93"
       x="395"
       y="341.36218"
       id="text2993"
       sodipodi:linespacing="125%"><tspan
         sodipodi:role="line"
         id="tspan2995"
         x="395"
         y="341.36218" /></text>
    <text
       xml:space="preserve"
       style="font-size:144px;font-style:normal;font-variant:normal;font-weight:bold;font-stretch:normal;line-height:125%;letter-spacing:0px;word-spacing:0px;fill:#ff0000;fill-opacity:1;stroke:#000000;stroke-opacity:1;font-family:Gloucester MT Extra Condensed;-inkscape-font-specification:Gloucester MT Extra Condensed"
       x="202.52335"
       y="232.83022"
       id="text3793"
       sodipodi:linespacing="125%"
       inkscape:export-filename="/Users/marianovillaloncastro/Google Drive/WebsPracticas/Web-Jubatus/img/apuntes.png"
       inkscape:export-xdpi="90"
       inkscape:export-ydpi="90"><tspan
         sodipodi:role="line"
         id="tspan3795"
         x="202.52335"
         y="232.83022">A</tspan></text>
    <text
       sodipodi:linespacing="125%"
       id="text3799"
       y="255.47682"
       x="215.01433"
       style="font-size:144px;font-style:normal;font-variant:normal;font-weight:bold;font-stretch:normal;line-height:125%;letter-spacing:0px;word-spacing:0px;fill:#2a7fff;fill-opacity:1;stroke:#000000;stroke-width:1;stroke-opacity:1;font-family:Gloucester MT Extra Condensed;-inkscape-font-specification:Gloucester MT Extra Condensed"
       xml:space="preserve"
       transform="matrix(0.98208489,-0.18843904,0.18843904,0.98208489,0,0)"
       inkscape:export-filename="/Users/marianovillaloncastro/Google Drive/WebsPracticas/Web-Jubatus/img/apuntes.png"
       inkscape:export-xdpi="90"
       inkscape:export-ydpi="90"><tspan
         y="255.47682"
         x="215.01433"
         id="tspan3801"
         sodipodi:role="line"
         style="font-size:72px;fill:#2a7fff;fill-opacity:1;stroke-width:1">p</tspan></text>
  </g>
</svg>
